# xmcd
#
# Track frame offsets:
#	150
#	13185
#	27405
#	41115
#	55936
#	70171
#	83511
#	98787
#	113253
#	126826
#	139673
#	153900
#	167156
#	180500
#	198161
#	210428
#	222946
#	237749
#
# Disc length: 3346 seconds
#
# Revision: 0
# Processed by: cddbd v1.5.2PL0 Copyright (c) Steve Scherf et al.
# Submitted via: EasyCDDAExtractor 16.0.6.1
#
DISCID=f10d1012
DTITLE=Μενιδιάτης Μιχάλης - Τραγούδια 45 στροφές-Μενιδιάτης Μιχάλης 3
DYEAR=1998
DGENRE=Λαϊκή
TTITLE0=Μενιδιάτης Μιχάλης-Χρηστάκης - Μην παραπονιέσαι [1964, Ν. Δαλέζιου]
TTITLE1=Μενιδιάτης Μιχάλης-Κούρτη Ρία - Καλομελέτα μάτια μου [1964, Στ. Μακρυδ
TTITLE1=άκη-Δ. Γκούτη]
TTITLE2=Μενιδιάτης Μιχάλης-Δημητρίου Φούλη-Καλδάρας Απόστολος - Αναποδιές και 
TTITLE2=βάσανα [1966, Απ. Καλδάρα-Γ. Σαμολαδά]
TTITLE3=Μενιδιάτης Μιχάλης-Κολλητήρη Σοφία - Μέσ' στην σκληρή σου την ψυχή [19
TTITLE3=65, Μπ. Μαρκάκη]
TTITLE4=Μενιδιάτης Μιχάλης-Κολλητήρη Σοφία - Ήταν σφάλμα μου βαρύ [1964, Γερ. 
TTITLE4=Κλουβάτου-Σαρ. Τσιλιβερδή]
TTITLE5=Μενιδιάτης Μιχάλης-Γεωργούτη Βούλα - Το ταξίδι της ζωής μου [1970, Μπ.
TTITLE5=Μπακάλη-Δ. Γκούτη]
TTITLE6=Μενιδιάτης Μιχάλης-Ροζάκη Σία-Κατινάρης Αντώνης - Πριν στην πόρτα σου 
TTITLE6=πεθάνω [1971, Αντ. Κατινάρη-Ι. Κιούρκα]
TTITLE7=Μενιδιάτης Μιχάλης-Λαμπράκη Χαρούλα - Είσαι το χόμπυ της καρδιάς μου [
TTITLE7=1964, Ν. Δαλέζιου]
TTITLE8=Μενιδιάτης Μιχάλης - Αν μ' αγαπάτε [1966, Χρ. Κολοκοτρώνη]
TTITLE9=Μενιδιάτης Μιχάλης-Χρυσάφη Άννα - Ζηλεύουνε που μ' αγαπάς [1965, Στρ. 
TTITLE9=Ατταλίδη-Γ. Κονιτόπουλου]
TTITLE10=Μενιδιάτης Μιχάλης-Ροζάκη Σία-Κατινάρης Αντώνης - Ζωή δεν με λογάριασ
TTITLE10=ες [1971, Αντ. Κατινάρη-Ι. Κιούρκα]
TTITLE11=Μενιδιάτης Μιχάλης-Γεωργούτη Βούλα - Στο Θεό προσευχή [1970, Μπ. Μπακ
TTITLE11=άλη-Δ. Γκούτη]
TTITLE12=Μενιδιάτης Μιχάλης-Δημητρίου Φούλη-Καλδάρας Απόστολος - Πιο λίγο να μ
TTITLE12=' αγαπάς [1966, Απ. Καλδάρα]
TTITLE13=Μενιδιάτης Μιχάλης-Γκίκα Βούλα-Χιώτης Μανώλης - Κέννεντυ [1964, Γερ. 
TTITLE13=Κλουβάτου-Χαρ. Βασιλειάδη]
TTITLE14=Μενιδιάτης Μιχάλης - Γι' αυτά που μού 'χεις κάνει [1971, Μ. Καρρά-Κ. 
TTITLE14=Κινδύνη]
TTITLE15=Μενιδιάτης Μιχάλης - Σ' αγαπώ, σε σκέπτομαι [1971, Γ. Μαλλίδη-Ηρ. Παπ
TTITLE15=ασιδέρη]
TTITLE16=Μενιδιάτης Μιχάλης - Δεν σού πρέπει να γκρινιάζεις [1967, Απ. Καλδάρα
TTITLE16=]
TTITLE17=Μενιδιάτης Μιχάλης - Είναι στο χέρι σου [1967, Θ. Σοφού]
EXTD=
EXTT0=
EXTT1=
EXTT2=
EXTT3=
EXTT4=
EXTT5=
EXTT6=
EXTT7=
EXTT8=
EXTT9=
EXTT10=
EXTT11=
EXTT12=
EXTT13=
EXTT14=
EXTT15=
EXTT16=
EXTT17=
PLAYORDER=
